<?xml version="1.0" encoding="UTF-8"?>
<svg xmlns="http://www.w3.org/2000/svg" xmlns:xlink="http://www.w3.org/1999/xlink" width="454.47pt" height="60.65pt" viewBox="0 0 454.47 60.65" version="1.1">
<defs>
<clipPath id="clip1">
  <path d="M 0 0 L 53 0 L 53 60.648438 L 0 60.648438 Z M 0 0 "/>
</clipPath>
<clipPath id="clip2">
  <path d="M 61 0 L 122 0 L 122 60.648438 L 61 60.648438 Z M 61 0 "/>
</clipPath>
<clipPath id="clip3">
  <path d="M 137 0 L 185 0 L 185 60.648438 L 137 60.648438 Z M 137 0 "/>
</clipPath>
<clipPath id="clip4">
  <path d="M 325 0 L 333 0 L 333 60.648438 L 325 60.648438 Z M 325 0 "/>
</clipPath>
<clipPath id="clip5">
  <path d="M 346 1 L 394 1 L 394 60.648438 L 346 60.648438 Z M 346 1 "/>
</clipPath>
<clipPath id="clip6">
  <path d="M 402 0 L 454.46875 0 L 454.46875 60.648438 L 402 60.648438 Z M 402 0 "/>
</clipPath>
<clipPath id="clip7">
  <path d="M 261 18 L 312 18 L 312 60.648438 L 261 60.648438 Z M 261 18 "/>
</clipPath>
</defs>
<g id="surface1">
<g clip-path="url(#clip1)" clip-rule="nonzero">
<path style=" stroke:none;fill-rule:nonzero;fill:rgb(34.498596%,34.899902%,36.099243%);fill-opacity:1;" d="M 0 30.492188 L 0 30.324219 C 0 13.738281 12.398438 -0.00390625 29.652344 -0.00390625 C 39.121094 -0.00390625 45.152344 3.097656 50.597656 7.621094 C 51.269531 8.207031 51.941406 9.128906 51.941406 10.300781 C 51.941406 12.0625 50.347656 13.570313 48.589844 13.570313 C 47.667969 13.570313 46.910156 13.148438 46.410156 12.816406 C 41.886719 8.792969 36.777344 6.113281 29.570313 6.113281 C 16.585938 6.113281 6.867188 16.667969 6.867188 30.15625 L 6.867188 30.324219 C 6.867188 43.894531 16.671875 54.535156 29.570313 54.535156 C 36.859375 54.535156 41.96875 52.019531 46.996094 47.414063 C 47.5 46.910156 48.253906 46.492188 49.089844 46.492188 C 50.765625 46.492188 52.273438 48 52.273438 49.675781 C 52.273438 50.679688 51.769531 51.519531 51.183594 52.019531 C 45.40625 57.300781 39.039063 60.648438 29.402344 60.648438 C 12.480469 60.648438 0 47.332031 0 30.492188 "/>
</g>
<g clip-path="url(#clip2)" clip-rule="nonzero">
<path style=" stroke:none;fill-rule:nonzero;fill:rgb(34.498596%,34.899902%,36.099243%);fill-opacity:1;" d="M 114.765625 30.492188 L 114.765625 30.324219 C 114.765625 17.003906 105.046875 6.113281 91.640625 6.113281 C 78.238281 6.113281 68.6875 16.835938 68.6875 30.15625 L 68.6875 30.324219 C 68.6875 43.644531 78.40625 54.535156 91.808594 54.535156 C 105.214844 54.535156 114.765625 43.8125 114.765625 30.492188 M 61.820313 30.492188 L 61.820313 30.324219 C 61.820313 14.15625 73.964844 -0.00390625 91.808594 -0.00390625 C 109.652344 -0.00390625 121.632813 13.988281 121.632813 30.15625 L 121.632813 30.324219 C 121.632813 46.492188 109.488281 60.648438 91.640625 60.648438 C 73.796875 60.648438 61.820313 46.660156 61.820313 30.492188 "/>
</g>
<g clip-path="url(#clip3)" clip-rule="nonzero">
<path style=" stroke:none;fill-rule:nonzero;fill:rgb(34.498596%,34.899902%,36.099243%);fill-opacity:1;" d="M 137.289063 3.933594 C 137.289063 2.09375 138.796875 0.582031 140.558594 0.582031 C 142.398438 0.582031 143.910156 2.09375 143.910156 3.933594 L 143.910156 27.058594 L 177.753906 27.058594 L 177.753906 3.933594 C 177.753906 2.09375 179.261719 0.582031 181.105469 0.582031 C 182.863281 0.582031 184.371094 2.09375 184.371094 3.933594 L 184.371094 56.714844 C 184.371094 58.554688 182.863281 60.0625 181.105469 60.0625 C 179.261719 60.0625 177.753906 58.554688 177.753906 56.714844 L 177.753906 33.253906 L 143.910156 33.253906 L 143.910156 56.714844 C 143.910156 58.554688 142.398438 60.0625 140.558594 60.0625 C 138.796875 60.0625 137.289063 58.554688 137.289063 56.714844 "/>
</g>
<path style=" stroke:none;fill-rule:nonzero;fill:rgb(34.498596%,34.899902%,36.099243%);fill-opacity:1;" d="M 202.628906 56.292969 L 202.628906 4.355469 C 202.628906 2.511719 204.132813 1.003906 205.894531 1.003906 L 242.335938 1.003906 C 244.011719 1.003906 245.351563 2.34375 245.351563 4.019531 C 245.351563 5.695313 244.011719 7.035156 242.335938 7.035156 L 209.246094 7.035156 L 209.246094 27.058594 L 238.566406 27.058594 C 240.242188 27.058594 241.582031 28.480469 241.582031 30.074219 C 241.582031 31.75 240.242188 33.089844 238.566406 33.089844 L 209.246094 33.089844 L 209.246094 53.613281 L 242.753906 53.613281 C 244.429688 53.613281 245.769531 54.953125 245.769531 56.628906 C 245.769531 58.304688 244.429688 59.644531 242.753906 59.644531 L 205.894531 59.644531 C 204.132813 59.644531 202.628906 58.136719 202.628906 56.292969 "/>
<g clip-path="url(#clip4)" clip-rule="nonzero">
<path style=" stroke:none;fill-rule:nonzero;fill:rgb(34.498596%,34.899902%,36.099243%);fill-opacity:1;" d="M 325.722656 3.933594 C 325.722656 2.09375 327.230469 0.582031 328.988281 0.582031 C 330.832031 0.582031 332.34375 2.09375 332.34375 3.933594 L 332.34375 56.714844 C 332.34375 58.554688 330.832031 60.0625 328.988281 60.0625 C 327.230469 60.0625 325.722656 58.554688 325.722656 56.714844 "/>
</g>
<g clip-path="url(#clip5)" clip-rule="nonzero">
<path style=" stroke:none;fill-rule:nonzero;fill:rgb(34.498596%,34.899902%,36.099243%);fill-opacity:1;" d="M 366.683594 7.117188 L 349.679688 7.117188 C 348.003906 7.117188 346.578125 5.777344 346.578125 4.101563 C 346.578125 2.425781 348.003906 1.003906 349.679688 1.003906 L 390.394531 1.003906 C 392.070313 1.003906 393.492188 2.425781 393.492188 4.101563 C 393.492188 5.777344 392.070313 7.117188 390.394531 7.117188 L 373.386719 7.117188 L 373.386719 56.710938 C 373.386719 58.554688 371.878906 60.0625 370.035156 60.0625 C 368.191406 60.0625 366.683594 58.554688 366.683594 56.710938 "/>
</g>
<g clip-path="url(#clip6)" clip-rule="nonzero">
<path style=" stroke:none;fill-rule:nonzero;fill:rgb(34.498596%,34.899902%,36.099243%);fill-opacity:1;" d="M 425.152344 36.605469 L 403.371094 6.113281 C 402.953125 5.445313 402.617188 4.6875 402.617188 3.851563 C 402.617188 2.09375 404.210938 0.585938 406.050781 0.585938 C 407.476563 0.585938 408.398438 1.421875 409.234375 2.59375 L 428.589844 30.492188 L 448.105469 2.59375 C 448.945313 1.421875 449.78125 0.585938 451.207031 0.585938 C 453.046875 0.585938 454.472656 2.09375 454.472656 3.851563 C 454.472656 4.6875 453.96875 5.609375 453.550781 6.28125 L 431.855469 36.441406 L 431.855469 56.714844 C 431.855469 58.554688 430.34375 60.0625 428.503906 60.0625 C 426.660156 60.0625 425.152344 58.554688 425.152344 56.714844 "/>
</g>
<g clip-path="url(#clip7)" clip-rule="nonzero">
<path style=" stroke:none;fill-rule:nonzero;fill:rgb(58.799744%,78.799438%,23.498535%);fill-opacity:1;" d="M 290.882813 60.265625 L 264.222656 60.265625 C 262.46875 60.265625 261.046875 58.84375 261.046875 57.089844 C 261.046875 55.335938 262.46875 53.917969 264.222656 53.917969 L 290.882813 53.917969 C 298.9375 53.917969 305.492188 47.363281 305.492188 39.308594 C 305.492188 31.25 298.9375 24.695313 290.882813 24.695313 L 279.039063 24.695313 C 277.285156 24.695313 275.863281 23.277344 275.863281 21.523438 C 275.863281 19.769531 277.285156 18.347656 279.039063 18.347656 L 290.882813 18.347656 C 302.4375 18.347656 311.839844 27.75 311.839844 39.308594 C 311.839844 50.863281 302.4375 60.265625 290.882813 60.265625 "/>
</g>
<path style=" stroke:none;fill-rule:nonzero;fill:rgb(58.799744%,78.799438%,23.498535%);fill-opacity:1;" d="M 288.355469 42.695313 L 276.515625 42.695313 C 264.957031 42.695313 255.554688 33.292969 255.554688 21.734375 C 255.554688 10.179688 264.957031 0.777344 276.515625 0.777344 L 303.171875 0.777344 C 304.925781 0.777344 306.347656 2.199219 306.347656 3.949219 C 306.347656 5.703125 304.925781 7.125 303.171875 7.125 L 276.515625 7.125 C 268.460938 7.125 261.90625 13.679688 261.90625 21.734375 C 261.90625 29.789063 268.460938 36.34375 276.515625 36.34375 L 288.355469 36.34375 C 290.109375 36.34375 291.53125 37.765625 291.53125 39.519531 C 291.53125 41.273438 290.109375 42.695313 288.355469 42.695313 "/>
</g>
</svg>
