<?xml version="1.0" encoding="iso-8859-1"?>
<!-- Generator: Adobe Illustrator 19.0.0, SVG Export Plug-In . SVG Version: 6.00 Build 0)  -->
<svg version="1.1" id="Capa_1" xmlns="http://www.w3.org/2000/svg" xmlns:xlink="http://www.w3.org/1999/xlink" x="0px" y="0px"
	 viewBox="0 0 512 512" style="enable-background:new 0 0 512 512;" xml:space="preserve">
<g>
	<g>
		<path d="M245.597,36.513c-29.546-21.806-63.793-27.416-86.456-31.127c-6.385-1.046-14.313-2.344-16.597-3.358
			c-6.288-3.658-14.595-2.306-19.324,3.696c-2.117,2.7-3.221,5.989-3.221,9.268v206.894c-12.894-7.702-28.583-11.894-45-11.894
			c-19.251,0-37.515,5.746-51.426,16.18C8.593,237.409,0,253.38,0,269.993c0,16.613,8.593,32.584,23.574,43.82
			c13.911,10.434,32.175,16.18,51.426,16.18s37.515-5.746,51.426-16.18c19.147-14.36,23.574-30.464,23.574-49.82V105.415
			c44.301,2.509,72.999,15.859,89.75,27.241c21.198,14.403,29.177,29.121,30.285,32.591c0.854,7.543,7.253,13.301,14.896,13.3
			c0.143,0,0.286-0.002,0.429-0.006c8.143-0.229,14.614-6.914,14.579-15.06C299.685,105.657,281.402,62.939,245.597,36.513z
			 M75,299.993c-24.393,0-45-13.739-45-30c0-16.262,20.607-30,45-30s45,13.738,45,30C120,286.255,99.393,299.993,75,299.993z
			 M260.306,110.433C239.784,95.588,204.466,78.137,150,75.379V34.283c1.382,0.231,2.812,0.466,4.293,0.708
			c35.16,5.76,89.657,14.691,108.756,77.475C262.151,111.784,261.236,111.106,260.306,110.433z"/>
	</g>
</g>
<g>
	<g>
		<path d="M506.033,155.018c-3.759-2.835-8.629-3.742-13.154-2.448l-210,60C276.44,214.41,272,220.296,272,226.993v60v116.894
			c-12.894-7.702-28.583-11.894-45-11.894c-19.251,0-37.515,5.746-51.426,16.18C160.593,419.409,152,435.38,152,451.993
			c0,16.613,8.593,32.584,23.574,43.82c13.911,10.434,32.175,16.18,51.426,16.18s37.515-5.746,51.426-16.18
			C293.407,484.577,302,468.605,302,451.993c0-3.262-0.343-6.498-0.989-9.68c0.63-1.656,0.989-3.444,0.989-5.32V298.307l180-51.428
			v97.008c-12.894-7.702-28.583-11.894-45-11.894c-19.251,0-37.515,5.746-51.426,16.18C370.593,359.409,362,375.38,362,391.993
			c0,16.613,8.593,32.584,23.574,43.82c13.911,10.434,32.175,16.18,51.426,16.18c19.251,0,37.515-5.746,51.426-16.18
			C503.407,424.577,512,408.605,512,391.993v-165v-60C512,162.286,509.791,157.852,506.033,155.018z M227,481.993
			c-24.393,0-45-13.738-45-30c0-16.262,20.607-30,45-30s45,13.738,45,30C272,468.255,251.393,481.993,227,481.993z M437,421.993
			c-24.393,0-45-13.738-45-30c0-16.262,20.607-30,45-30s45,13.738,45,30C482,408.255,461.393,421.993,437,421.993z M482,215.678
			l-180,51.429v-28.8l180-51.429V215.678z"/>
	</g>
</g>
<g>
</g>
<g>
</g>
<g>
</g>
<g>
</g>
<g>
</g>
<g>
</g>
<g>
</g>
<g>
</g>
<g>
</g>
<g>
</g>
<g>
</g>
<g>
</g>
<g>
</g>
<g>
</g>
<g>
</g>
</svg>
